<mxfile host="65bd71144e">
    <diagram id="iu8UTEItTF_XXB0HUZB4" name="Page-1">
        <mxGraphModel dx="1685" dy="467" grid="1" gridSize="10" guides="1" tooltips="1" connect="1" arrows="1" fold="1" page="1" pageScale="1" pageWidth="850" pageHeight="1100" math="0" shadow="0">
            <root>
                <mxCell id="0"/>
                <mxCell id="1" parent="0"/>
                <mxCell id="2" value="Actor" style="shape=umlActor;verticalLabelPosition=bottom;verticalAlign=top;html=1;" parent="1" vertex="1">
                    <mxGeometry x="101" y="20" width="30" height="60" as="geometry"/>
                </mxCell>
                <mxCell id="7" value="Tienda&amp;nbsp;" style="shape=umlLifeline;perimeter=lifelinePerimeter;whiteSpace=wrap;html=1;container=1;collapsible=0;recursiveResize=0;outlineConnect=0;size=50;" parent="1" vertex="1">
                    <mxGeometry x="188" y="49" width="104" height="131" as="geometry"/>
                </mxCell>
                <mxCell id="122" value="" style="html=1;points=[];perimeter=orthogonalPerimeter;" parent="7" vertex="1">
                    <mxGeometry x="47" y="60" width="10" height="80" as="geometry"/>
                </mxCell>
                <mxCell id="8" value="Carrito" style="shape=umlLifeline;perimeter=lifelinePerimeter;whiteSpace=wrap;html=1;container=1;collapsible=0;recursiveResize=0;outlineConnect=0;size=50;" parent="1" vertex="1">
                    <mxGeometry x="600" y="50" width="100" height="120" as="geometry"/>
                </mxCell>
                <mxCell id="129" value="" style="html=1;points=[];perimeter=orthogonalPerimeter;" parent="8" vertex="1">
                    <mxGeometry x="45" y="66" width="10" height="54" as="geometry"/>
                </mxCell>
                <mxCell id="9" value="Catalogo" style="shape=umlLifeline;perimeter=lifelinePerimeter;whiteSpace=wrap;html=1;container=1;collapsible=0;recursiveResize=0;outlineConnect=0;size=50;" parent="1" vertex="1">
                    <mxGeometry x="325" y="50" width="100" height="140" as="geometry"/>
                </mxCell>
                <mxCell id="10" value="ArtÃ­culos" style="shape=umlLifeline;perimeter=lifelinePerimeter;whiteSpace=wrap;html=1;container=1;collapsible=0;recursiveResize=0;outlineConnect=0;size=50;" parent="1" vertex="1">
                    <mxGeometry x="460" y="50" width="100" height="140" as="geometry"/>
                </mxCell>
                <mxCell id="11" value="" style="shape=umlLifeline;perimeter=lifelinePerimeter;whiteSpace=wrap;html=1;container=0;collapsible=0;recursiveResize=0;outlineConnect=0;size=0;" parent="1" vertex="1">
                    <mxGeometry x="-254" y="120" width="740" height="70" as="geometry"/>
                </mxCell>
                <mxCell id="126" value="" style="html=1;points=[];perimeter=orthogonalPerimeter;" parent="1" vertex="1">
                    <mxGeometry x="111" y="120" width="10" height="70" as="geometry"/>
                </mxCell>
                <mxCell id="78" value="Redireccionador" style="shape=umlFrame;tabWidth=110;tabHeight=30;tabPosition=left;html=1;boundedLbl=1;labelInHeader=1;width=116;height=29;movable=1;resizable=1;rotatable=1;deletable=1;editable=1;connectable=1;" parent="1" vertex="1">
                    <mxGeometry x="-40" y="105" width="760" height="95" as="geometry"/>
                </mxCell>
                <mxCell id="79" value="[IF seleccion_menu = 3]" style="text" parent="78" vertex="1">
                    <mxGeometry width="100" height="20" relative="1" as="geometry">
                        <mxPoint x="8" y="33" as="offset"/>
                    </mxGeometry>
                </mxCell>
                <mxCell id="131" value="Precio_Total()" style="html=1;verticalAlign=bottom;endArrow=open;dashed=1;endSize=8;entryX=1.074;entryY=0.313;entryDx=0;entryDy=0;entryPerimeter=0;" parent="1" source="129" target="122" edge="1">
                    <mxGeometry relative="1" as="geometry">
                        <mxPoint x="230" y="150" as="sourcePoint"/>
                        <mxPoint x="380" y="136" as="targetPoint"/>
                    </mxGeometry>
                </mxCell>
                <mxCell id="132" value="finalizar_compra()" style="html=1;verticalAlign=bottom;endArrow=open;dashed=1;endSize=8;exitX=0.074;exitY=0.635;exitDx=0;exitDy=0;exitPerimeter=0;entryX=1.238;entryY=0.188;entryDx=0;entryDy=0;entryPerimeter=0;" parent="1" source="122" edge="1">
                    <mxGeometry relative="1" as="geometry">
                        <mxPoint x="520.0500000000001" y="160.82500000000002" as="sourcePoint"/>
                        <mxPoint x="120.99999999999989" y="160.00000000000003" as="targetPoint"/>
                    </mxGeometry>
                </mxCell>
            </root>
        </mxGraphModel>
    </diagram>
</mxfile>